<svg xmlns="http://www.w3.org/2000/svg" width="900" height="437" viewBox="0 0 900 437" role="img" aria-labelledby="title desc">
<title id="title">Hi, I'm YZC0219</title><desc id="desc">Animated introduction: big data student, building EnergyTrace, using AI assistance and checking results with evidence.</desc>
<style>@keyframes m0 { 0%,3.75% {opacity:0;transform:translateY(6px)} 5.75%,88% {opacity:1;transform:translateY(0)} 97%,100% {opacity:0;transform:translateY(0)} } .m0 {opacity:0;animation:m0 16s linear infinite}@keyframes t0 {0% {opacity:0} 0.00%,2.75% {opacity:1} 3.75%,100% {opacity:0} } .t0 {opacity:0;animation:t0 16s linear infinite}@keyframes m1 { 0%,17.50% {opacity:0;transform:translateY(6px)} 19.50%,88% {opacity:1;transform:translateY(0)} 97%,100% {opacity:0;transform:translateY(0)} } .m1 {opacity:0;animation:m1 16s linear infinite}@keyframes t1 {0% {opacity:0} 8.50%,16.50% {opacity:1} 17.50%,100% {opacity:0} } .t1 {opacity:0;animation:t1 16s linear infinite}@keyframes m2 { 0%,32.50% {opacity:0;transform:translateY(6px)} 34.50%,88% {opacity:1;transform:translateY(0)} 97%,100% {opacity:0;transform:translateY(0)} } .m2 {opacity:0;animation:m2 16s linear infinite}@keyframes t2 {0% {opacity:0} 23.50%,31.50% {opacity:1} 32.50%,100% {opacity:0} } .t2 {opacity:0;animation:t2 16s linear infinite}@keyframes m3 { 0%,46.88% {opacity:0;transform:translateY(6px)} 48.88%,88% {opacity:1;transform:translateY(0)} 97%,100% {opacity:0;transform:translateY(0)} } .m3 {opacity:0;animation:m3 16s linear infinite}@keyframes t3 {0% {opacity:0} 37.88%,45.88% {opacity:1} 46.88%,100% {opacity:0} } .t3 {opacity:0;animation:t3 16s linear infinite}@keyframes m4 { 0%,62.50% {opacity:0;transform:translateY(6px)} 64.50%,88% {opacity:1;transform:translateY(0)} 97%,100% {opacity:0;transform:translateY(0)} } .m4 {opacity:0;animation:m4 16s linear infinite}@keyframes t4 {0% {opacity:0} 53.50%,61.50% {opacity:1} 62.50%,100% {opacity:0} } .t4 {opacity:0;animation:t4 16s linear infinite}@keyframes pulse {0%,100%{opacity:.35}50%{opacity:1}} .dot{animation:pulse .8s ease-in-out infinite}.d1{animation-delay:.15s}.d2{animation-delay:.3s}@media (prefers-reduced-motion:reduce){[class^="m"]{animation:none;opacity:1}[class^="t"]{display:none}.dot{animation:none}}</style><rect x=".5" y=".5" width="899" height="436" rx="20" fill="#f6f8fc" stroke="#d8e3ed"/>
<g font-family="Segoe UI,Arial,Microsoft YaHei,sans-serif"><circle cx="48" cy="39" r="16" fill="#087e72"/><text x="40" y="46" fill="#f6f8fc" font-size="20" font-weight="600">Y</text><text x="76" y="36" fill="#182d42" font-size="17" font-weight="600">YZC0219</text><text x="76" y="55" fill="#61758b" font-size="11">LET'S TALK DATA</text><circle cx="731" cy="36" r="4" fill="#087e72"/><text x="745" y="40" fill="#61758b" font-size="12">Learning in public</text>
<g class="m0"><path d="M46 123l-14 13v-18" fill="#e8f0f6"/><rect x="32" y="84" width="350" height="49" rx="17" fill="#e8f0f6"/><text x="53" y="116" fill="#182d42" font-size="23">嗨，我是 YZC0219 👋</text></g><g class="t0"><rect x="32" y="84" width="104" height="49" rx="17" fill="#e8f0f6"/><circle class="dot d0" cx="62" cy="109" r="5" fill="#61758b"/><circle class="dot d1" cx="84" cy="109" r="5" fill="#61758b"/><circle class="dot d2" cx="106" cy="109" r="5" fill="#61758b"/></g><g class="m1"><path d="M46 185l-14 13v-18" fill="#e8f0f6"/><rect x="32" y="146" width="620" height="49" rx="17" fill="#e8f0f6"/><text x="53" y="178" fill="#182d42" font-size="23">大数据专业学生，正在把问题变成作品。</text></g><g class="t1"><rect x="32" y="146" width="104" height="49" rx="17" fill="#e8f0f6"/><circle class="dot d0" cx="62" cy="171" r="5" fill="#61758b"/><circle class="dot d1" cx="84" cy="171" r="5" fill="#61758b"/><circle class="dot d2" cx="106" cy="171" r="5" fill="#61758b"/></g><g class="m2"><path d="M854 247l14 13v-18" fill="#e6edff"/><rect x="604" y="208" width="264" height="49" rx="17" fill="#e6edff"/><text x="625" y="240" fill="#182d42" font-size="23">最近在做什么？</text></g><g class="t2"><rect x="604" y="208" width="104" height="49" rx="17" fill="#e6edff"/><circle class="dot d0" cx="634" cy="233" r="5" fill="#61758b"/><circle class="dot d1" cx="656" cy="233" r="5" fill="#61758b"/><circle class="dot d2" cx="678" cy="233" r="5" fill="#61758b"/></g><g class="m3"><path d="M46 309l-14 13v-18" fill="#e8f0f6"/><rect x="32" y="270" width="705" height="49" rx="17" fill="#e8f0f6"/><text x="53" y="302" fill="#182d42" font-size="23">能迹 EnergyTrace · 工业能耗分析与可视化</text></g><g class="t3"><rect x="32" y="270" width="104" height="49" rx="17" fill="#e8f0f6"/><circle class="dot d0" cx="62" cy="295" r="5" fill="#61758b"/><circle class="dot d1" cx="84" cy="295" r="5" fill="#61758b"/><circle class="dot d2" cx="106" cy="295" r="5" fill="#61758b"/></g><g class="m4"><path d="M46 371l-14 13v-18" fill="#e8f0f6"/><rect x="32" y="332" width="625" height="49" rx="17" fill="#e8f0f6"/><text x="53" y="364" fill="#182d42" font-size="23">AI 辅助实现，用证据核验，持续学习。</text></g><g class="t4"><rect x="32" y="332" width="104" height="49" rx="17" fill="#e8f0f6"/><circle class="dot d0" cx="62" cy="357" r="5" fill="#61758b"/><circle class="dot d1" cx="84" cy="357" r="5" fill="#61758b"/><circle class="dot d2" cx="106" cy="357" r="5" fill="#61758b"/></g><path d="M32 398H868" stroke="#d8e3ed"/><text x="32" y="422" fill="#087e72" font-size="11" letter-spacing="2">ASK · BUILD · VERIFY</text><text x="681" y="422" fill="#61758b" font-size="11">ORIGINAL LOOP / 16s</text></g></svg>